<svg id="Instagram" xmlns="http://www.w3.org/2000/svg" xmlns:xlink="http://www.w3.org/1999/xlink" width="48" height="48" viewBox="0 0 48 48">
  <defs>
    <clipPath id="clip-path">
      <path id="path-1" d="M0,24A24,24,0,1,1,24,48,24,24,0,0,1,0,24Z" fill="none"/>
    </clipPath>
  </defs>
  <g id="Instagram-2" data-name="Instagram">
    <g id="back">
      <path id="path-1-2" data-name="path-1" d="M0,24A24,24,0,1,1,24,48,24,24,0,0,1,0,24Z" fill="#fff"/>
    </g>
    <g id="Shape_Clipped" data-name="Shape Clipped">
      <path id="path-1-3" data-name="path-1" d="M0,24A24,24,0,1,1,24,48,24,24,0,0,1,0,24Z" fill="none"/>
      <g id="Shape_Clipped-2" data-name="Shape Clipped" clip-path="url(#clip-path)">
        <path id="Shape" d="M12.8,25.6c-3.445,0-3.9-.015-5.278-.077a9.463,9.463,0,0,1-3.107-.595,6.258,6.258,0,0,1-2.267-1.477A6.262,6.262,0,0,1,.672,21.183a9.463,9.463,0,0,1-.595-3.107C.015,16.7,0,16.244,0,12.8,0,9.379.015,8.919.077,7.522A9.419,9.419,0,0,1,.671,4.415,6.287,6.287,0,0,1,2.149,2.148,6.256,6.256,0,0,1,4.416.672,9.449,9.449,0,0,1,7.523.077C8.9.015,9.356,0,12.8,0s3.9.015,5.275.077a9.477,9.477,0,0,1,3.11.595A6.259,6.259,0,0,1,23.45,2.148a6.287,6.287,0,0,1,1.478,2.267,9.582,9.582,0,0,1,.595,3.107C25.585,8.9,25.6,9.36,25.6,12.8s-.015,3.9-.076,5.278a9.58,9.58,0,0,1-.595,3.106,6.558,6.558,0,0,1-3.743,3.745,9.479,9.479,0,0,1-3.109.595C16.7,25.586,16.244,25.6,12.8,25.6ZM11.653,2.3c-2.379,0-2.83.018-4.024.072a7.048,7.048,0,0,0-2.377.442,3.967,3.967,0,0,0-1.472.958,3.967,3.967,0,0,0-.958,1.472,7.065,7.065,0,0,0-.441,2.376c-.061,1.343-.074,1.747-.074,5.171s.013,3.83.074,5.172a7.065,7.065,0,0,0,.441,2.376,3.965,3.965,0,0,0,.958,1.471,3.967,3.967,0,0,0,1.472.958,7.12,7.12,0,0,0,2.377.441c1.359.062,1.765.075,5.172.075s3.812-.013,5.172-.075a7.065,7.065,0,0,0,2.376-.441,4.243,4.243,0,0,0,2.429-2.428,7.067,7.067,0,0,0,.441-2.376c.062-1.359.075-1.765.075-5.17s-.013-3.811-.075-5.17a7.065,7.065,0,0,0-.441-2.376,3.976,3.976,0,0,0-.958-1.472,3.951,3.951,0,0,0-1.472-.957,7.065,7.065,0,0,0-2.376-.441c-1.343-.061-1.747-.074-5.172-.074H11.653ZM12.8,19.372A6.573,6.573,0,1,1,19.373,12.8,6.581,6.581,0,0,1,12.8,19.372Zm0-10.839A4.266,4.266,0,1,0,17.068,12.8,4.271,4.271,0,0,0,12.8,8.534ZM19.633,7.5A1.536,1.536,0,1,1,21.17,5.968,1.537,1.537,0,0,1,19.633,7.5Z" transform="translate(11.2 11.2)"/>
      </g>
    </g>
  </g>
</svg>
