<svg id="Youtube" xmlns="http://www.w3.org/2000/svg" width="48" height="48" viewBox="0 0 48 48">
  <g id="Youtube-2" data-name="Youtube">
    <path id="back" d="M0,24A24,24,0,1,1,24,48,24,24,0,0,1,0,24Z" fill="red"/>
    <path id="Fill-1" d="M25.065,2.873A3.25,3.25,0,0,0,22.8.549C20.805,0,12.8,0,12.8,0S4.795,0,2.8.549A3.25,3.25,0,0,0,.535,2.873,35.108,35.108,0,0,0,0,9.2a35.109,35.109,0,0,0,.535,6.327A3.25,3.25,0,0,0,2.8,17.851c2,.549,10,.549,10,.549s8.005,0,10-.549a3.25,3.25,0,0,0,2.263-2.324A35.1,35.1,0,0,0,25.6,9.2a35.1,35.1,0,0,0-.535-6.327" transform="translate(11.2 15.2)" fill="#fff"/>
    <path id="Fill-2" d="M0,8V0L6.4,4Z" transform="translate(21.6 20.8)" fill="red"/>
  </g>
</svg>
