<svg id="Facebook" xmlns="http://www.w3.org/2000/svg" width="48" height="48" viewBox="0 0 48 48">
  <g id="Facebook-2" data-name="Facebook">
    <path id="Path" d="M48,24A24,24,0,1,0,20.25,47.709V30.938H14.156V24H20.25V18.712c0-6.014,3.581-9.337,9.066-9.337a36.912,36.912,0,0,1,5.372.469V15.75H31.659c-2.981,0-3.909,1.852-3.909,3.75V24h6.656l-1.064,6.938H27.75V47.709A24,24,0,0,0,48,24Z" fill="#1877f2"/>
    <path id="Path-2" data-name="Path" d="M19.186,21.563l1.064-6.937H13.594v-4.5c0-1.9.928-3.75,3.909-3.75h3.028V.469A36.912,36.912,0,0,0,15.159,0C9.675,0,6.094,3.323,6.094,9.337v5.288H0v6.938H6.094V38.334a24.341,24.341,0,0,0,7.5,0V21.563Z" transform="translate(14.156 9.375)" fill="#fff"/>
  </g>
</svg>
